<svg xmlns="http://www.w3.org/2000/svg" viewBox="0 0 350 350"><defs><style>.a{fill:#a09669;}.b{fill:#0dabb7;}.c{fill:#3b357a;}.d{fill:#b90a0f;}.e,.f{fill:#14171a;}.f{font-size:11.48px;font-family:DNPShueiNShogoMinStd-Hv-83pv-RKSJ-H, DNPShueiNShogoMinStd;}</style></defs><polygon class="a" points="25.2 321.94 25.2 252.71 15.97 252.71 15.97 331.17 94.43 331.17 94.43 321.94 25.2 321.94"/><polygon class="b" points="249.85 18.84 249.85 28.07 319.07 28.07 319.07 97.29 328.3 97.29 328.3 18.84 249.85 18.84"/><polygon class="c" points="319.07 321.94 249.85 321.94 249.85 331.17 328.3 331.17 328.3 252.71 319.07 252.71 319.07 321.94"/><polygon class="d" points="25.2 28.07 94.43 28.07 94.43 18.84 15.97 18.84 15.97 97.29 25.2 97.29 25.2 28.07"/><path class="e" d="M65.84,117.22V113a.58.58,0,0,0-.58-.58H5.34a.58.58,0,0,0-.58.58v4.22a.58.58,0,0,0,.58.58H24a1.34,1.34,0,0,1,1.34,1.34v16.4a1.22,1.22,0,0,1-1.22,1.22H9.52a.58.58,0,0,0-.58.58v89a.58.58,0,0,0,.58.58H63a.58.58,0,0,0,.58-.58v-89a.58.58,0,0,0-.58-.58H47.88a1.9,1.9,0,0,1-1.9-1.9V119.22a1.42,1.42,0,0,1,1.42-1.42H65.26A.58.58,0,0,0,65.84,117.22Zm-30.49.58h1a1.09,1.09,0,0,1,1.09,1.09v16.54a1.33,1.33,0,0,1-1.33,1.33h-1a1.31,1.31,0,0,1-1.31-1.3V119.27A1.47,1.47,0,0,1,35.35,117.8ZM23,142.14h1.3a1.12,1.12,0,0,1,1.12,1.12v13.07c0,11.71-.09,19.86-1.84,27a.88.88,0,0,1-1.74-.21V143.31A1.16,1.16,0,0,1,23,142.14Zm25.75,79.6H23.76a2,2,0,0,1-2-2V206.93a1.77,1.77,0,0,1,1.77-1.77H48.7a2.06,2.06,0,0,1,2.06,2.06v12.46A2.06,2.06,0,0,1,48.7,221.74Zm.56-21.81H23.56a1.77,1.77,0,0,1-1.77-1.77v-4.43a2.48,2.48,0,0,1,.78-1.79c10.17-9.75,11.31-22.17,11.31-40.09v-8.31a1.41,1.41,0,0,1,1.41-1.4h.89a1.29,1.29,0,0,1,1.29,1.29v34.1c0,6.72,2.39,9.56,9.85,9.56h1.24a2.21,2.21,0,0,1,2.2,2.2v9.15A1.5,1.5,0,0,1,49.26,199.93Zm1.5-55.82v33.4a2,2,0,0,1-2,2h0A2.81,2.81,0,0,1,46,176.66V144a1.88,1.88,0,0,1,1.88-1.88h.93A2,2,0,0,1,50.76,144.11Z"/><path class="e" d="M190.24,96.79c1.13-1.14,2.22-2.28,3.32-3.48a.72.72,0,0,0-.27-1.14L177.66,86a.69.69,0,0,0-.83.26c-9,13.5-27.13,27.86-49.43,35.82a.71.71,0,0,0-.41.94l1.35,3.09a.73.73,0,0,0,.79.42,176.9,176.9,0,0,0,17.66-4.72,1.38,1.38,0,0,1,1.8,1.32v31.47a.7.7,0,0,0,.71.7h48.18a1.68,1.68,0,0,1,1.68,1.68v1.55a.7.7,0,0,0,.7.71h14.46a.71.71,0,0,0,.71-.71V122.77a.7.7,0,0,1,1-.65,114.32,114.32,0,0,0,13.45,4.71.69.69,0,0,0,.83-.39l6.61-14.9a.7.7,0,0,0-.59-1c-15.74-1.21-30.54-3.89-45.61-11.07A1.68,1.68,0,0,1,190.24,96.79Zm7.27,54.34H166.37a1.91,1.91,0,0,1-1.91-1.9V124.71a1.65,1.65,0,0,1,1.66-1.65h29.65a3.39,3.39,0,0,1,3.39,3.39v23A1.65,1.65,0,0,1,197.51,151.13Zm-36.4-34.9a107.16,107.16,0,0,0,22.58-13.54,2.11,2.11,0,0,1,2.77.13,100.08,100.08,0,0,0,17.65,13.07,1.28,1.28,0,0,1-.66,2.37H161.54A1.06,1.06,0,0,1,161.11,116.23Z"/><path class="e" d="M217.59,102C209.28,92.88,197,84.2,186,76.43a.86.86,0,0,1-.21-1.2l1.37-2a.86.86,0,0,1,.94-.35,222.87,222.87,0,0,1,23.57,7.93,3.11,3.11,0,0,0,3.77-1.17,33.15,33.15,0,0,0,4.21-9.56s0-.09,0-.13v-.68a2.1,2.1,0,0,0-2.09-2.09h-71a.87.87,0,0,0-.87.87V83.43a.87.87,0,0,1-.87.87H132.24a.87.87,0,0,1-.87-.87v-20a.87.87,0,0,1,.87-.87H171a2.5,2.5,0,0,0,2.5-2.5V49.5a.87.87,0,0,1,.87-.87h15a.87.87,0,0,1,.87.87V60a2.5,2.5,0,0,0,2.5,2.51H235a.87.87,0,0,1,.87.87v6.38a.93.93,0,0,1-.12.46c-3,5-9.81,10.1-15.68,13.31a.52.52,0,0,0,0,.94c1.64.73,5.17,3.38,7.23,4.67a.86.86,0,0,1,.23,1.25l-8.6,11.52A.87.87,0,0,1,217.59,102Z"/><path class="e" d="M137.7,97.07a76.94,76.94,0,0,0,24.39-27.13,1,1,0,0,1,1.21-.43l15.19,6.35a1,1,0,0,1,.31,1.59c-10.8,10.34-25.36,19.22-39.1,23.26a1,1,0,0,1-1.09-.42l-1.2-1.91A1,1,0,0,1,137.7,97.07Z"/><path class="e" d="M112.85,302.49a.66.66,0,0,1,.9-.62c5,1.89,8.22,3,10.55,3,3.39,0,4.77-2.3,6.33-7.34,2.69-8.59,3.92-22.21,4.1-32.26a2.53,2.53,0,0,0-2.53-2.56H118.9a2.05,2.05,0,0,0-2,1.62c-4.2,19.61-14,35-34.57,46.15a.67.67,0,0,1-.82-.15l-2.1-2.36a.66.66,0,0,1,.1-1c14.62-11.07,21.66-25.46,24.67-42.36a1.66,1.66,0,0,0-1.63-1.93H84.19a.67.67,0,0,1-.67-.66V259.3a.67.67,0,0,1,.67-.66h19.36a1.73,1.73,0,0,0,1.71-1.49,153.5,153.5,0,0,0,1-16.23.65.65,0,0,1,.7-.65l12.13.82a.67.67,0,0,1,.62.7,149.74,149.74,0,0,1-1.43,15.1,1.51,1.51,0,0,0,1.49,1.75h27.44a.67.67,0,0,1,.66.67c0,14.73-1.23,30.07-4,38.73-2.75,8.43-5.31,13.48-12.37,13.48-4.24,0-10-1.87-18.22-5.87a.67.67,0,0,1-.38-.6Z"/><path class="e" d="M300.26,247.48c0,28.15-23.78,41.85-55.86,42a.74.74,0,0,1-.73-.66l-.21-2a.73.73,0,0,1,.61-.79c24.35-4.07,39.59-8.29,41.16-35.79a2.54,2.54,0,0,0-2.53-2.68H238a.73.73,0,0,1-.73-.72v-3.1A.73.73,0,0,1,238,243h61.51a.73.73,0,0,1,.73.73ZM242.75,227V224.1a.73.73,0,0,1,.73-.73h50.87a.73.73,0,0,1,.72.73V227a.73.73,0,0,1-.72.73H243.48A.73.73,0,0,1,242.75,227Z"/><path class="e" d="M267,129.18v-2.42a1,1,0,0,1,1-1h12.56a2.31,2.31,0,0,0,2.31-2.31V101.38a1,1,0,0,1,1-1h12a1,1,0,0,1,1,1v22.13a2.25,2.25,0,0,0,2.25,2.25h13.6a1,1,0,0,1,1,1v2.42a1,1,0,0,1-1,1H299.26a2.37,2.37,0,0,0-2.37,2.37v75.93a1,1,0,0,1-1,1h-12a1,1,0,0,1-1-1v-76a2.3,2.3,0,0,0-2.3-2.3H268A1,1,0,0,1,267,129.18Z"/><path class="e" d="M268.88,134.11A114.65,114.65,0,0,1,260,145.84a2.54,2.54,0,0,0-.6,1.65V209a.78.78,0,0,1-.79.78H246.13a.79.79,0,0,1-.79-.78V163.88a1.25,1.25,0,0,0-2.05-1c-3.87,3.18-7.33,5.74-8.68,6.72a.77.77,0,0,1-1.06-.15l-1.67-2.07a.77.77,0,0,1,0-1c2.5-2.53,14-15.06,23.52-39.46a.78.78,0,0,1,1.1-.41l12,6.48A.8.8,0,0,1,268.88,134.11Z"/><path class="e" d="M236.45,132.76A136,136,0,0,0,252.6,99a1,1,0,0,1,1.53-.59l12.11,7.25a1.06,1.06,0,0,1,.29,1.54,194.78,194.78,0,0,1-27.14,28.6,1,1,0,0,1-1.47-.13l-1.4-1.67A1,1,0,0,1,236.45,132.76Z"/><path class="e" d="M263.94,191.61c2.73-15.39,3.71-29.55,3.73-50.21a.62.62,0,0,1,.76-.61l10.89,2.53a.63.63,0,0,1,.47.68c-2.07,18.67-5.68,34.21-11.73,49.59a.62.62,0,0,1-.89.31l-2.93-1.65A.6.6,0,0,1,263.94,191.61Z"/><path class="e" d="M305.47,186.14a279.1,279.1,0,0,0-4.78-44.57.68.68,0,0,1,.33-.72l2.24-1.24a.68.68,0,0,1,.95.32,293.22,293.22,0,0,1,13.84,38.58.68.68,0,0,1-.28.75l-11.25,7.42A.67.67,0,0,1,305.47,186.14Z"/><path class="e" d="M321.31,139.37H311.17a.62.62,0,0,1-.62-.62v-3.18a.63.63,0,0,1,.62-.63h33.44a.63.63,0,0,1,.63.63v3.18a.63.63,0,0,1-.63.62H338.9a1.79,1.79,0,0,0-1.78,1.79v51.11c0,11.56-2.95,17.35-12.55,17.35-4.47,0-10.35-1.31-18-3.8a.62.62,0,0,1-.44-.6v-3.15a.63.63,0,0,1,.8-.6,38.74,38.74,0,0,0,9.41,1.63c5.78,0,6.76-3.33,6.76-10.95v-51A1.78,1.78,0,0,0,321.31,139.37Z"/><rect class="e" x="317.2" y="104.66" width="28.03" height="4.31" rx="0.58"/><path class="e" d="M312.74,111.24a.26.26,0,0,1,0,.41,17.94,17.94,0,0,0-2.78,3.92,48,48,0,0,0-2.67,5.75.24.24,0,0,1-.47,0,52.68,52.68,0,0,0-2.74-6.14,19.06,19.06,0,0,0-2.84-4,.26.26,0,0,1,0-.41,20.59,20.59,0,0,0,2.69-4.06,46.05,46.05,0,0,0,2.75-5.58.25.25,0,0,1,.48,0,48.94,48.94,0,0,0,2.64,6A21,21,0,0,0,312.74,111.24Z"/><path class="e" d="M89.79,168.79H85a2.17,2.17,0,0,1-2.17-2.16V148.05a1.51,1.51,0,0,1,1.52-1.51H90a1.66,1.66,0,0,1,1.66,1.66v18.71A1.88,1.88,0,0,1,89.79,168.79ZM90,141.16H84.61a1.74,1.74,0,0,1-1.75-1.74V119.25a1.83,1.83,0,0,1,1.84-1.83h5a1.92,1.92,0,0,1,1.93,1.93v20.1A1.71,1.71,0,0,1,90,141.16Zm16.66-23.74H112a2.39,2.39,0,0,1,2.39,2.39v19.55a1.8,1.8,0,0,1-1.8,1.8h-6a1.71,1.71,0,0,1-1.71-1.71V119.23A1.81,1.81,0,0,1,106.63,117.42Zm-1.81,49.42V148a1.47,1.47,0,0,1,1.47-1.47h6.39a1.69,1.69,0,0,1,1.69,1.69V167a1.76,1.76,0,0,1-1.76,1.77h-5.85A1.94,1.94,0,0,1,104.82,166.84ZM127.25,189l-1.66.79a.54.54,0,0,0-.3.58c.5,3,.78,6,1,9.4a1.23,1.23,0,0,1-1,1.31c-1.88.34-4.36.57-6.71.83a1.38,1.38,0,0,1-1.35-2A154.15,154.15,0,0,0,126.42,180a.55.55,0,0,0-.41-.72l-11-2.54a.55.55,0,0,0-.68.53,180.67,180.67,0,0,1-2,23.9,1.63,1.63,0,0,1-1.61,1.39h0a1.59,1.59,0,0,1-1.59-1.58V175.77a1.61,1.61,0,0,1,1.6-1.61h17.41a.55.55,0,0,0,.55-.55v-61a.55.55,0,0,0-.55-.55H98.91a1.08,1.08,0,0,1-.46-2.06c4.42-2.06,11.22-4.71,15.63-12.63a.57.57,0,0,0-.38-.82l-11.91-2.27a.55.55,0,0,0-.62.35c-3,7.86-9.52,8.46-13,15.72A2.94,2.94,0,0,1,85.56,112H69.08a.55.55,0,0,0-.55.55v61a.54.54,0,0,0,.55.55h4.63a2.19,2.19,0,0,1,2.19,2.14c.41,26.76-8.53,53.43-23.6,68.46a.55.55,0,0,0,0,.72l2.08,2.67a.56.56,0,0,0,.74.13c21.66-13.87,34.54-45,35.36-72.31a1.86,1.86,0,0,1,1.85-1.81h.34a1.59,1.59,0,0,1,1.58,1.59v41c0,10,3.89,14,13.44,14h17.53c10.08,0,17.45-10.24,20.72-30.74a.57.57,0,0,0-.42-.63l-3.12-.78a.55.55,0,0,0-.67.43c-.8,4.07-5,20.47-17,19.77H113c-3.43,0-3.88-.74-3.88-3.13v-6a.81.81,0,0,1,1.57-.27l1.49,4.14a.55.55,0,0,0,.79.29c4.23-2.4,8.65-4.8,11.84-7a1.1,1.1,0,0,1,1.72.91v5a.55.55,0,0,0,.85.47l7.23-4.52a.54.54,0,0,0,.23-.63c-.69-2.19-4.11-12.77-6.88-18.77A.56.56,0,0,0,127.25,189Z"/><path class="e" d="M213.73,287.56c-3-3.43-8-8.53-11.77-12.07a2.16,2.16,0,0,0-3.17.19c-9.23,11.23-22.12,19.56-37.24,24.25a.57.57,0,0,1-.61-.18l-1.77-2.08a.56.56,0,0,1,.2-.88,72.39,72.39,0,0,0,32.12-28.62,1.8,1.8,0,0,0-.45-2.33,201.38,201.38,0,0,0-21.92-14.61.56.56,0,0,1-.25-.71l.86-2.07a.56.56,0,0,1,.71-.33c7.05,2.42,15.92,6.8,23.45,10.45a2.18,2.18,0,0,0,3-1.1A104,104,0,0,0,204,230.62a.56.56,0,0,1,.69-.47l12.88,3.11a.58.58,0,0,1,.43.67A98,98,0,0,1,207.65,263a2.45,2.45,0,0,0,.9,3.24c4.37,2.61,10.14,6.94,14,9.74a.57.57,0,0,1,.11.8l-8.07,10.77A.56.56,0,0,1,213.73,287.56Z"/><text class="f" transform="translate(142.78 190.24)">SHUYOJUTSU<tspan x="31.02" y="17.23">CAMERA</tspan></text></svg>