<svg xmlns="http://www.w3.org/2000/svg" viewBox="0 0 350 350"><defs><style>.a{fill:#a09669;}.b{fill:#0dabb7;}.c{fill:#3b357a;}.d{fill:#b90a0f;}.e{font-size:11.48px;font-family:DNPShueiNShogoMinStd-Hv-83pv-RKSJ-H, DNPShueiNShogoMinStd;}.e,.f{fill:#14171a;}</style></defs><polygon class="a" points="25.2 321.94 25.2 252.71 15.97 252.71 15.97 331.17 94.43 331.17 94.43 321.94 25.2 321.94"/><polygon class="b" points="249.85 18.84 249.85 28.07 319.07 28.07 319.07 97.29 328.3 97.29 328.3 18.84 249.85 18.84"/><polygon class="c" points="319.07 321.94 249.85 321.94 249.85 331.17 328.3 331.17 328.3 252.71 319.07 252.71 319.07 321.94"/><polygon class="d" points="25.2 28.07 94.43 28.07 94.43 18.84 15.97 18.84 15.97 97.29 25.2 97.29 25.2 28.07"/><text class="e" transform="translate(168.16 202.06)">HISTORY OF<tspan x="-1.71" y="17.23">FUNNY FACE</tspan></text><path class="f" d="M32.63,84.7a.33.33,0,0,1,.14-.39C38.36,81,40.61,78.78,43,74.79c2.63-4.41,3-9.91,5.88-14.11,3.32-4.75,9.5-5.83,12.47-6.41a.32.32,0,0,1,.36.21l.68,1.89a.3.3,0,0,1-.15.38c-2.94,1.6-4.59,6.07-6,10.8-1.67,5.57-2.52,10-8.34,15.26C44.32,86,36.66,86.39,33.55,86.65a.3.3,0,0,1-.32-.21Z"/><path class="f" d="M139.83,49.12v2.5a1.15,1.15,0,0,1-.86,1.12c-3.59.94-17.66,4.44-28.73,4.34a1.16,1.16,0,0,0-1.17,1.16V84.3c0,7.79-2.22,12.12-10.75,12.12-3.85,0-9.2-.93-16.2-2.8a.85.85,0,0,1-.62-.81V90a.83.83,0,0,1,1-.79,32,32,0,0,0,7.73,1.32c3.83,0,4.45-2.11,4.45-6.19V56.44a1.17,1.17,0,0,0-.93-1.14c-3-.61-5.5-1.33-8-2a1.15,1.15,0,0,0-1.47,1.1c-.42,25-10.24,36.38-39,45.18a.88.88,0,0,1-1.06-.5l-.78-1.93A.86.86,0,0,1,43.81,96C63.23,84.33,69,73.12,69.57,50.74a1.17,1.17,0,0,0-1-1.18c-2-.2-4.3-.34-6.81-.4-8-.19-20.41,2.21-24.54,3.06a1.17,1.17,0,0,1-1.39-1.14V48.59a1.17,1.17,0,0,1,.94-1.14c3.6-.7,16.81-3.15,25-3.15a77.3,77.3,0,0,1,19.49,2.39,1.16,1.16,0,0,0,1.44-1.12V37.86a1.16,1.16,0,0,1,1.16-1.16H96.45a1.16,1.16,0,0,1,1.16,1.16V50.07a1.15,1.15,0,0,0,.94,1.14,60.1,60.1,0,0,0,10.07,1c10.86.15,25.25-3.1,29.78-4.19A1.15,1.15,0,0,1,139.83,49.12Z"/><path class="f" d="M103.94,128.68a115,115,0,0,0,20.39-16,.63.63,0,0,0,.2-.46v-7.74a.63.63,0,0,0-.64-.64H81.12a.63.63,0,0,1-.44-1.09,53.42,53.42,0,0,0,4.18-4.57.65.65,0,0,0-.34-1L67.8,92.73a.62.62,0,0,0-.73.34c-6,12.85-14.73,22.57-28.52,33.78a.65.65,0,0,0-.14.84l1.14,1.78a.62.62,0,0,0,.78.25,198.77,198.77,0,0,0,23.89-12.67.61.61,0,0,1,.79.11,88.11,88.11,0,0,0,13.47,12,.63.63,0,0,1-.1,1.09c-11.88,5.3-28.07,10-44.9,13.91a.64.64,0,0,0-.46.82l.85,2.45a.63.63,0,0,0,.66.42c21.78-2.09,39.12-5.64,53.91-11.48a.61.61,0,0,1,.46,0c13.89,5.33,34.84,18.06,53.93,20.16a.65.65,0,0,0,.59-.27l10.15-14.44a.64.64,0,0,0-.55-1c-9.37.63-25.88-.74-49-11A.64.64,0,0,1,103.94,128.68Zm-15.78-4.51a85.79,85.79,0,0,1-18.35-10,.64.64,0,0,1,0-1c1.64-1.3,3.41-3,5.22-4.7a.61.61,0,0,1,.43-.17h30.43a.64.64,0,0,1,.47,1.07c-5.73,6.17-9.67,10.36-16.26,14.61A2.13,2.13,0,0,1,88.16,124.17Z"/><path class="f" d="M145.25,174.65a.49.49,0,0,1,.1-.54c13.7-13.85,17.42-30.05,17.42-52.26V95a.49.49,0,0,1,.49-.49h12a.49.49,0,0,0,.47-.61,80.18,80.18,0,0,0-6.23-15.33.49.49,0,0,1,.1-.59l2.23-2a.49.49,0,0,1,.57-.07,151.57,151.57,0,0,1,16.83,11.64.49.49,0,0,1,0,.79L181,93.61a.49.49,0,0,0,.26.9h8.9a.49.49,0,0,0,.43-.23c2-3.45,4.91-11.12,6.66-18.12a.48.48,0,0,1,.67-.32L211.2,82.1a.49.49,0,0,1,.13.8,74.73,74.73,0,0,1-13.64,10.71.48.48,0,0,0,.25.9H216.4a.49.49,0,0,1,.49.49v3.57a.49.49,0,0,1-.49.49H175.89a.49.49,0,0,0-.49.49c0,2.92.18,18.07,0,22.3-1.39,32.1-15.79,47-29.69,53.8Z"/><path class="f" d="M160.62,73.8v-3a.79.79,0,0,1,.79-.78h20.13a.78.78,0,0,0,.78-.79V60.1a.79.79,0,0,1,.79-.79h13.07a.79.79,0,0,1,.78.79v9.15a.78.78,0,0,0,.78.79h17.74a.78.78,0,0,1,.78.78v3a.78.78,0,0,1-.78.78H161.41A.79.79,0,0,1,160.62,73.8Z"/><path class="f" d="M249.67,68.78h35.84a.49.49,0,0,0,.49-.49V64.72a.49.49,0,0,0-.49-.49H216.75a.49.49,0,0,0-.49.49v3.57a.49.49,0,0,0,.49.49h22.16a.49.49,0,0,1,.49.51c-.28,5.31-7,8.28-7.73,12.81a.49.49,0,0,1-.48.43h-11a.49.49,0,0,0-.49.49V148.4a.49.49,0,0,0,.49.49h5.52a.5.5,0,0,1,.45.72,52.62,52.62,0,0,1-16.21,19.47.48.48,0,0,0-.14.62l1.36,2.54a.5.5,0,0,0,.6.23,95.55,95.55,0,0,0,27.81-14.83.5.5,0,0,0,0-.81l-10.45-7a.49.49,0,0,1,.28-.9h34.73a.49.49,0,0,0,.49-.49V83a.49.49,0,0,0-.49-.49h-25.4a.5.5,0,0,1-.29-.9c4-2.83,7.7-3.79,10.8-12.52A.51.51,0,0,1,249.67,68.78Zm1.41,18.78v54.61a2.17,2.17,0,0,1-2.18,2.18H233.53a.49.49,0,0,1-.49-.49V88.65a1.58,1.58,0,0,1,1.58-1.58h16A.49.49,0,0,1,251.08,87.56Z"/><path class="f" d="M261.67,173.73a95.59,95.59,0,0,0-13-19.93l2-3a116.32,116.32,0,0,1,23.45,10.5Z"/><path class="f" d="M302.3,231.52a.61.61,0,0,1,.39-.8c17-5.42,26.47-20.53,25.83-39.06-.58-16.69-10.77-26.52-22.71-27.08a1.13,1.13,0,0,0-1.17,1.06c-2,27-5.52,52.24-27.42,50.12-6.47-.63-15.09-9.09-12.91-23,2.1-18.81,16.71-31.47,40.51-31.47,22.9,0,38.6,11.9,38.6,31.31,0,21.08-16.15,38.19-39.77,41.2a.61.61,0,0,1-.65-.4Zm-27-39.56c-.2,2-.86,10.86,5.59,12.25,12.39,2.67,16.34-16.24,19.3-37.59a1.39,1.39,0,0,0-1.65-1.54C284,168,276.71,178.63,275.27,192Z"/><path class="f" d="M84.84,242.34V225.18a.64.64,0,0,0-1.15-.38,65.21,65.21,0,0,1-13.16,13,.63.63,0,0,1-.87-.1l-1-1.12c-.8,28.56-20.47,52-31.57,63.44a.64.64,0,0,1-.84.06l-.88-.65a.65.65,0,0,1-.16-.87c9.15-13.85,21-28.42,21.14-77.22V187.73a.64.64,0,0,1,.64-.64h97.39a.64.64,0,0,1,.64.64v3.12a.64.64,0,0,1-.64.64H70a.63.63,0,0,0-.64.64V221.3c0,3.78-.08,7.48-.31,11a.64.64,0,0,0,1.13.45c4.39-5.54,9.68-14.28,11.82-21.45a.64.64,0,0,0-.62-.81H72.05a.64.64,0,0,1-.64-.64V207a.64.64,0,0,1,.64-.64H84.2a.63.63,0,0,0,.64-.64V195.52a.64.64,0,0,1,.64-.64h9.79a.64.64,0,0,1,.64.64v10.23a.64.64,0,0,0,.64.64h9.56a.64.64,0,0,1,.64.64v2.79a.64.64,0,0,1-.64.64H96.55a.64.64,0,0,0-.64.64v31.24a.64.64,0,0,1-.64.64H85.48A.64.64,0,0,1,84.84,242.34Zm-21,36.13v-3a.64.64,0,0,1,.64-.64H79.35a.64.64,0,0,0,.64-.64V251.63a.64.64,0,0,1,.64-.64H92.22a.64.64,0,0,1,.64.64v22.55a.64.64,0,0,0,.64.64h11a.64.64,0,0,0,.64-.64V246.33a.64.64,0,0,1,.64-.64h12.27a.64.64,0,0,1,.64.64v9.89a.63.63,0,0,0,.64.64H141a.65.65,0,0,1,.64.65v3.12a.64.64,0,0,1-.64.64H119.36a.64.64,0,0,0-.64.64v12.27a.64.64,0,0,0,.64.64h29.43a.64.64,0,0,1,.64.64v3.12a.64.64,0,0,1-.64.64l-84.31-.11A.64.64,0,0,1,63.84,278.47ZM142.44,238c-4.61-5.15-8.05-12-10.39-19.86a.64.64,0,0,0-1.25.18v24.06a.64.64,0,0,1-.64.64h-9.79a.64.64,0,0,1-.64-.64V224.9a.63.63,0,0,0-1.13-.39,68.39,68.39,0,0,1-14.54,13.62.64.64,0,0,1-.85-.11l-1.29-1.51a.61.61,0,0,1,0-.83c5.91-6.64,12-15.18,14.94-24.38a.64.64,0,0,0-.61-.84h-7.18a.64.64,0,0,1-.64-.64V207a.64.64,0,0,1,.64-.64h10a.63.63,0,0,0,.64-.64V195.52a.64.64,0,0,1,.64-.64h9.79a.64.64,0,0,1,.64.64v10.23a.64.64,0,0,0,.64.64h12.83a.64.64,0,0,1,.64.64v2.79a.64.64,0,0,1-.64.64H133a.65.65,0,0,0-.55,1,33.36,33.36,0,0,0,16.16,13.33.64.64,0,0,1,.35.85l-5.43,12.16A.65.65,0,0,1,142.44,238Z"/><path d="M237.1,313.75c-15.07,0-27.24-1.21-39-5.17a1.07,1.07,0,0,1-.59-1.52c3.19-5.76,4.58-14.75,5.27-22.54a1.07,1.07,0,0,1,1.06-1h33.25a1.07,1.07,0,0,0,1.07-1.07V251.21a1.07,1.07,0,0,0-1.07-1.07H204.37a1.07,1.07,0,0,1-1.07-1.07V234.91a1.07,1.07,0,0,0-1.07-1.07H191.57a1.07,1.07,0,0,0-1.07,1.07v14.16a1.07,1.07,0,0,1-1.07,1.07h-26a1.07,1.07,0,0,0-1.07,1.07v31.27a1.07,1.07,0,0,0,1.07,1.07H189a1.07,1.07,0,0,1,1.07,1.15c-.49,6-1.4,13.28-3.34,17.92a1.08,1.08,0,0,1-1.45.57c-6.93-3.27-14-6.65-21.59-11a1.08,1.08,0,0,0-1.31.19l-.74.77a1.08,1.08,0,0,0,.09,1.56c6.89,5.83,13.13,10.39,19.24,14.75a1.07,1.07,0,0,1,.16,1.6c-5.39,5.49-14.59,9.73-27.79,13.36a1.07,1.07,0,0,0-.67,1.52l.55,1.07a1.09,1.09,0,0,0,1.09.57c16.66-2.08,28.25-6.08,35.4-11.48a1,1,0,0,1,1.16-.08c13.22,7.53,27,10.48,46,11.6a1.08,1.08,0,0,0,1.09-.75l3.71-11.71a1.07,1.07,0,0,0-1-1.39Zm-12.37-60h0a1.07,1.07,0,0,1,1.07,1.07v24.07a1.07,1.07,0,0,1-1.07,1.07h0a1.07,1.07,0,0,1-1.07-1.07V254.81A1.07,1.07,0,0,1,224.73,253.74Zm-21.43,13.8V254.81a1.07,1.07,0,0,1,1.07-1.07h15.39a1.07,1.07,0,0,1,1.07,1.07v24.07a1.07,1.07,0,0,1-1.07,1.07H204.22a1.07,1.07,0,0,1-1.07-1.11C203.3,275.26,203.3,271.52,203.3,267.54Zm-12.8,2.3c0,3.21,0,6.19-.07,9.07a1.07,1.07,0,0,1-1.07,1H175.87a1.07,1.07,0,0,1-1.07-1.07V254.81a1.07,1.07,0,0,1,1.07-1.07h13.56a1.07,1.07,0,0,1,1.07,1.07Z"/><path class="f" d="M145.81,92.91a.52.52,0,0,0-.18-.61c-4.55-3.26-5.85-5.35-8.06-9.42-2.57-4.75-3.5-9.91-7-14.11-3.9-4.71-11.15-5.81-14.71-6.4a.5.5,0,0,0-.54.31l-.68,1.58a.51.51,0,0,0,.26.66c3.38,1.66,5.31,6.07,7,10.72,2,5.57,3,10,9.89,15.26,4.19,3.2,9.43,3.57,12.91,3.84a.5.5,0,0,0,.5-.32Z"/><path class="f" d="M106.08,219.64a.19.19,0,0,1,.06.3,14.4,14.4,0,0,0-1.52,3.32,41.53,41.53,0,0,0-1.2,4.65.18.18,0,0,1-.34.06,38.83,38.83,0,0,0-2.73-4.09,13.62,13.62,0,0,0-2.55-2.48c-.11-.07-.12-.18,0-.3a17,17,0,0,0,1.43-3.41,39.36,39.36,0,0,0,1.28-4.54.18.18,0,0,1,.35-.06,34.46,34.46,0,0,0,2.65,4A14.72,14.72,0,0,0,106.08,219.64Z"/><path class="f" d="M247.81,104.39c.13.1.13.21,0,.3a14.58,14.58,0,0,0-2.78,2.93,33,33,0,0,0-2.67,4.3.27.27,0,0,1-.47,0,37.31,37.31,0,0,0-2.73-4.59,15.57,15.57,0,0,0-2.85-3c-.13-.1-.12-.21,0-.31a15.93,15.93,0,0,0,2.69-3,31.84,31.84,0,0,0,2.76-4.17.27.27,0,0,1,.47,0,33.48,33.48,0,0,0,2.64,4.46A16.78,16.78,0,0,0,247.81,104.39Z"/><path class="f" d="M236.32,126.09c-.14-.1-.14-.22,0-.31a14.3,14.3,0,0,0,2.78-2.93,34,34,0,0,0,2.68-4.3.27.27,0,0,1,.47,0,35.4,35.4,0,0,0,2.73,4.59,15.51,15.51,0,0,0,2.84,3c.14.1.13.21,0,.31a15.28,15.28,0,0,0-2.69,3,31.51,31.51,0,0,0-2.76,4.17.27.27,0,0,1-.47,0,33.4,33.4,0,0,0-2.65-4.46A16.67,16.67,0,0,0,236.32,126.09Z"/><path class="f" d="M212.51,144a.58.58,0,0,0-.24-.47,17.32,17.32,0,0,0-9.78-3.24c-6.09,0-8.92,4-13,4.07-3.28.06-7.28-2.64-8.56-3.58a.58.58,0,0,0-.77.08l-2.13,2.34a.59.59,0,0,0,0,.84c1.47,1.25,6.31,5,11.16,5,6.32,0,8.25-3.39,13-3.61a16,16,0,0,1,9.29,2.33.59.59,0,0,0,.9-.5Z"/><path class="f" d="M212.51,127.92a.84.84,0,0,0-.32-.66A16.13,16.13,0,0,0,203,124c-5.84,0-8.54,3.91-12.39,4-3,0-6.62-2.45-8-3.5a.82.82,0,0,0-1.11.12l-1.69,1.94a.82.82,0,0,0,.07,1.16c1.59,1.39,6.09,4.94,10.56,5,6,.07,7.9-3.2,12.47-3.48a14.8,14.8,0,0,1,8.42,2.19.82.82,0,0,0,1.25-.7Z"/><path class="f" d="M212.51,113.13a.61.61,0,0,0-.2-.46,14.35,14.35,0,0,0-8.6-3.51c-5.42-.14-7.92,3.76-11.5,3.75-2.84,0-6.35-2.67-7.6-3.7a.62.62,0,0,0-.86.09L182,111.47a.6.6,0,0,0,.05.82c1.32,1.27,5.73,5.18,10,5.3,5.62.17,7.33-3.31,11.58-3.28a14.81,14.81,0,0,1,7.88,2.51.61.61,0,0,0,.95-.51Z"/></svg>